<svg width="216" height="27" viewBox="0 0 216 27" fill="none" xmlns="http://www.w3.org/2000/svg">
<g clip-path="url(#clip0_0_916)">
<path d="M9.42425 21.1226L5.443 27L6.62386 17.3339L0 10.1397L9.26499 8.01094L14.1747 0L18.53 8.01094L28.3494 10.1397L21.5036 17.3339L23.1318 27L16.6865 18.4935" stroke="white" stroke-width="2.13954"/>
<path d="M18.6568 14.5493C18.6568 17.033 16.6 19.0854 14.0145 19.0854C11.4289 19.0854 9.37213 17.033 9.37213 14.5493C9.37213 12.0656 11.4289 10.0132 14.0145 10.0132C16.6 10.0132 18.6568 12.0656 18.6568 14.5493Z" stroke="white" stroke-width="2.52466"/>
<path d="M41.8685 23.189C43.5698 23.189 44.9351 22.7269 45.9433 21.7817C46.9516 20.8365 47.4557 19.7233 47.4557 18.442C47.4557 17.2448 47.0566 16.2576 46.2794 15.5014C45.5022 14.7242 44.0949 14.0311 42.0575 13.4219C40.0411 12.8128 39.0119 12.1407 39.0119 10.9014C39.0119 9.57812 40.1671 8.65393 41.7634 8.65393C43.3388 8.65393 44.452 9.43109 45.0822 10.9644L47.2246 9.80917C46.4475 7.77174 44.5991 6.32243 41.8265 6.32243C40.2931 6.32243 39.0119 6.78453 37.9406 7.70872C36.8904 8.61192 36.3653 9.72516 36.3653 11.0484C36.3653 12.3087 36.7854 13.3169 37.6256 14.0521C38.4237 14.7662 39.705 15.3964 41.4904 15.9635C43.8429 16.6986 44.7881 17.3918 44.7881 18.5891C44.7881 19.9543 43.5908 20.8365 41.9105 20.8365C40.1251 20.8365 38.6968 19.8703 38.0036 18.106L35.8192 19.2402C36.7434 21.7607 38.9909 23.189 41.8685 23.189ZM60.0074 18.127C60.0284 17.9379 60.0494 17.6859 60.0494 17.3498C60.0494 15.6064 59.5663 14.2201 58.6001 13.1489C57.6339 12.0777 56.2896 11.5525 54.5882 11.5525C52.9709 11.5525 51.6266 12.1197 50.5554 13.2539C49.4841 14.3882 48.938 15.7534 48.938 17.3708C48.938 19.0301 49.5051 20.4375 50.6184 21.5507C51.7526 22.6639 53.1599 23.21 54.8193 23.21C56.8357 23.21 58.6631 22.2438 59.6083 20.5005L57.8019 19.3032C57.1928 20.4585 56.1846 21.0466 54.7773 21.0466C53.9161 21.0466 53.1599 20.7735 52.5088 20.2274C51.8576 19.6603 51.5216 18.9671 51.5006 18.127H60.0074ZM54.5882 13.695C56.1846 13.695 57.4238 14.6612 57.5078 16.2366H51.6266C51.8576 14.7032 53.0549 13.695 54.5882 13.695ZM68.581 15.3964C68.581 16.0265 68.224 16.3416 67.5308 16.3416H66.1445C64.1701 16.3416 61.4815 17.1607 61.4815 19.7653V19.8913C61.4815 20.8575 61.8386 21.6557 62.5527 22.2648C63.2669 22.874 64.1701 23.189 65.2623 23.189C66.7746 23.189 67.8669 22.6219 68.56 21.4667V23H71.0176V15.8585C71.0176 15.0813 70.8915 14.4092 70.6395 13.842C69.9463 12.3087 68.539 11.5525 66.4386 11.5525C64.1491 11.5525 62.5527 12.4978 61.6705 14.4092L63.582 15.5014C64.1491 14.3041 65.0943 13.716 66.3756 13.716C67.7829 13.716 68.581 14.4722 68.581 15.3964ZM68.56 18.463C68.56 20.1434 67.4678 21.1936 65.7664 21.1936C64.6952 21.1936 63.981 20.5845 63.981 19.6603C63.981 19.1772 64.2121 18.7991 64.6532 18.526C65.1153 18.253 65.6194 18.106 66.1445 18.106H68.56V18.463ZM79.9475 11.7416C79.8004 11.6996 79.6114 11.6786 79.3383 11.6786C77.973 11.6786 76.9438 12.3087 76.2507 13.569V11.7836H73.8141V23H76.3137V17.3078C76.3137 15.3544 77.3219 14.2411 79.2333 14.2411C79.5064 14.2411 79.7374 14.2621 79.9475 14.3041V11.7416ZM86.4548 23.189C87.8201 23.189 88.9333 22.853 89.7945 22.1808C90.6557 21.5087 91.2648 20.7105 91.5799 19.8073L89.3954 18.8411C88.8703 20.2274 87.9041 20.9206 86.4968 20.9206C85.5516 20.9206 84.7534 20.5845 84.1233 19.9123C83.4932 19.2402 83.1781 18.379 83.1781 17.3288C83.1781 16.2996 83.4932 15.4594 84.1233 14.8082C84.7744 14.1571 85.5516 13.821 86.4758 13.821C87.9041 13.821 88.8703 14.5142 89.3534 15.8795L91.4959 14.9133C90.8237 12.9178 88.9753 11.5525 86.4548 11.5525C84.7954 11.5525 83.4091 12.1197 82.2959 13.2749C81.1827 14.4302 80.6155 15.7955 80.6155 17.3708C80.6155 19.0301 81.1827 20.4164 82.2959 21.5297C83.4091 22.6429 84.7954 23.189 86.4548 23.189ZM103.606 23V16.0895C103.606 13.4009 102.156 11.5525 99.4048 11.5525C98.0395 11.5525 96.9052 12.0987 96.0441 13.2119V5.90234H93.5445V23H96.0441V16.7617C96.0441 15.0603 97.0523 13.9261 98.6276 13.9261C100.287 13.9261 101.106 15.0393 101.106 16.7197V23H103.606ZM122.001 23H124.563V6.55348H121.181L115.699 19.1352H115.678L110.112 6.55348H106.814V23H109.356V11.0694H109.398L114.712 23H116.623L121.959 11.0064H122.001V23ZM129.412 11.7836H126.556L131.555 21.7397L128.467 28.5242H131.135L138.843 11.7836H136.134L132.899 19.1352L129.412 11.7836ZM151.262 8.88498V6.55348H140.739V23H151.346V20.6475H143.323V15.7955H150.548V13.464H143.323V8.88498H151.262ZM152.418 23H155.275L158.09 19.0932L160.925 23H163.803L159.56 17.2868L163.656 11.7836H160.841L158.132 15.5014L155.443 11.7836H152.565L156.682 17.3288L152.418 23ZM177.041 17.3498C177.041 15.8585 176.537 14.5142 175.508 13.3379C174.5 12.1617 173.176 11.5736 171.538 11.5736C170.908 11.5736 170.236 11.7206 169.5 12.0357C168.765 12.3507 168.198 12.8338 167.778 13.527V11.7836H165.342V28.5242H167.841V21.3616C168.24 21.9708 168.786 22.4119 169.521 22.7269C170.257 23.021 170.908 23.168 171.475 23.168C173.092 23.168 174.415 22.6009 175.466 21.4457C176.516 20.2904 177.041 18.9251 177.041 17.3498ZM168.723 14.8503C169.353 14.1571 170.173 13.821 171.16 13.821C172.147 13.821 172.966 14.1571 173.575 14.8503C174.205 15.5434 174.521 16.3836 174.521 17.3708C174.521 18.358 174.205 19.1982 173.575 19.8913C172.966 20.5635 172.147 20.8996 171.16 20.8996C170.173 20.8996 169.353 20.5635 168.723 19.8913C168.114 19.1982 167.799 18.358 167.799 17.3708C167.799 16.3836 168.114 15.5434 168.723 14.8503ZM189.51 18.127C189.531 17.9379 189.552 17.6859 189.552 17.3498C189.552 15.6064 189.068 14.2201 188.102 13.1489C187.136 12.0777 185.792 11.5525 184.09 11.5525C182.473 11.5525 181.129 12.1197 180.058 13.2539C178.986 14.3882 178.44 15.7534 178.44 17.3708C178.44 19.0301 179.007 20.4375 180.121 21.5507C181.255 22.6639 182.662 23.21 184.321 23.21C186.338 23.21 188.165 22.2438 189.11 20.5005L187.304 19.3032C186.695 20.4585 185.687 21.0466 184.279 21.0466C183.418 21.0466 182.662 20.7735 182.011 20.2274C181.36 19.6603 181.024 18.9671 181.003 18.127H189.51ZM184.09 13.695C185.687 13.695 186.926 14.6612 187.01 16.2366H181.129C181.36 14.7032 182.557 13.695 184.09 13.695ZM197.81 11.7416C197.663 11.6996 197.474 11.6786 197.201 11.6786C195.836 11.6786 194.807 12.3087 194.113 13.569V11.7836H191.677V23H194.176V17.3078C194.176 15.3544 195.185 14.2411 197.096 14.2411C197.369 14.2411 197.6 14.2621 197.81 14.3041V11.7416ZM205.593 14.0311V11.7836H202.841V8.31785H200.342V11.7836H198.283V14.0311H200.342V19.3872C200.342 21.8237 201.77 23.126 204.228 23.126C204.711 23.126 205.173 23.042 205.572 22.895V20.7735C205.299 20.8365 205.026 20.8575 204.774 20.8575C203.492 20.8575 202.841 20.3324 202.841 18.9881V14.0311H205.593Z" fill="white"/>
<path d="M206.779 8.90448V8.14003H210.381V8.90448H209.038V12.5255H208.122V8.90448H206.779ZM210.864 8.14003H212.008L213.215 11.0865H213.267L214.474 8.14003H215.618V12.5255H214.719V9.67108H214.682L213.547 12.5041H212.935L211.8 9.66038H211.764V12.5255H210.864V8.14003Z" fill="white"/>
</g>
<defs>
<clipPath id="clip0_0_916">
<rect width="216.001" height="27" fill="white"/>
</clipPath>
</defs>
</svg>
