<?xml version="1.0" encoding="UTF-8"?>
<svg width="227px" height="38px" viewBox="0 0 227 38" version="1.1" xmlns="http://www.w3.org/2000/svg" xmlns:xlink="http://www.w3.org/1999/xlink">
    <title>Group 4 Copy</title>
    <g id="Page-1" stroke="none" stroke-width="1" fill="none" fill-rule="evenodd">
        <g id="07" transform="translate(-553.000000, -101.000000)" fill-rule="nonzero">
            <g id="Group" transform="translate(527.000000, 101.636328)">
                <g id="Group-7" transform="translate(26.826855, 0.000000)">
                    <polygon id="Path-3" fill="#FF6666" points="11.4741454 10.246672 17.6022749 0 23.0381454 10.246672 35.1395767 12.9357648 26.7251454 21.996672 29.1792672 36.9219052 19.3313815 23.6023562 21.1988248 22.2216513 25.3261454 27.804672 24.2497985 21.2503828 30.6811454 14.323672 21.4890642 12.2821222 17.4811454 4.72767201 12.9628923 12.2824132 4.34514538 14.310672 10.5702231 21.2387195 9.80714538 27.635672 11.422446 25.19288 13.359888 26.4735083 6.34156389 37.091418 8.13914538 22.007672 0 12.9487428"></polygon>
                    <path d="M17.3679952,12.0868369 C20.9037109,12.0868369 23.7699748,14.9713353 23.7699748,18.5295443 C23.7699748,22.0877533 20.9037109,24.9722516 17.3679952,24.9722516 C13.8322796,24.9722516 10.9660157,22.0877533 10.9660157,18.5295443 C10.9660157,14.9713353 13.8322796,12.0868369 17.3679952,12.0868369 Z M17.3679952,14.8273067 C15.3497032,14.8273067 13.7064855,16.4809782 13.7064855,18.5295443 C13.7064855,20.5781103 15.3497032,22.2317818 17.3679952,22.2317818 C19.3862872,22.2317818 21.029505,20.5781103 21.029505,18.5295443 C21.029505,16.4809782 19.3862872,14.8273067 17.3679952,14.8273067 Z" id="Oval" fill="#FF6666"></path>
                    <g id="SearchMyExpert" transform="translate(40.817188, 10.028317)" fill="#022D72">
                        <path d="M100.033,4.876 L104.288,14.628 L108.497,4.876 L110.659,4.876 L104.748,18.285 C103.667,20.861 102.264,21.666 100.401,21.666 C99.228,21.666 98.032,21.275 97.273,20.539 L97.273,20.539 L98.216,18.883 C98.814,19.458 99.573,19.78 100.401,19.78 C101.459,19.78 102.126,19.297 102.724,17.894 L102.724,17.894 L103.115,17.043 L97.733,4.876 L100.033,4.876 Z M145.822,4.761 C149.387,4.761 151.986,7.245 151.986,10.971 C151.986,14.72 149.387,17.204 145.822,17.204 C144.097,17.204 142.579,16.537 141.567,15.226 L141.567,15.226 L141.567,21.528 L139.359,21.528 L139.359,4.876 L141.475,4.876 L141.475,6.808 C142.464,5.451 144.028,4.761 145.822,4.761 Z M6.555,0.782 C8.441,0.782 10.396,1.288 11.73,2.208 L11.73,2.208 L10.971,4.048 C9.568,3.151 7.981,2.737 6.555,2.737 C3.818,2.737 2.645,3.887 2.645,5.29 C2.645,9.223 12.397,6.762 12.397,12.673 C12.397,15.134 10.419,17.25 6.164,17.25 C3.703,17.25 1.288,16.422 0,15.226 L0,15.226 L0.851,13.432 C2.047,14.513 4.094,15.295 6.164,15.295 C8.947,15.295 10.143,14.214 10.143,12.811 C10.143,8.878 0.391,11.362 0.391,5.382 C0.391,2.898 2.323,0.782 6.555,0.782 Z M180.226,2.208 L180.226,4.876 L183.722,4.876 L183.722,6.693 L180.226,6.693 L180.226,13.294 C180.226,14.605 180.916,15.341 182.135,15.341 C182.779,15.341 183.4,15.134 183.86,14.766 L183.86,14.766 L184.55,16.353 C183.883,16.928 182.871,17.204 181.882,17.204 C179.421,17.204 178.018,15.847 178.018,13.386 L178.018,13.386 L178.018,6.693 L175.948,6.693 L175.948,4.876 L178.018,4.876 L178.018,2.208 L180.226,2.208 Z M55.785,4.761 C57.97,4.761 59.787,5.658 60.753,7.36 L60.753,7.36 L59.074,8.441 C58.292,7.245 57.096,6.693 55.762,6.693 C53.37,6.693 51.576,8.372 51.576,10.971 C51.576,13.616 53.37,15.272 55.762,15.272 C57.096,15.272 58.292,14.72 59.074,13.524 L59.074,13.524 L60.753,14.582 C59.787,16.284 57.97,17.204 55.785,17.204 C52.036,17.204 49.345,14.605 49.345,10.971 C49.345,7.337 52.036,4.761 55.785,4.761 Z M32.803,4.761 C36.138,4.761 38.024,6.371 38.024,9.706 L38.024,9.706 L38.024,17.066 L35.931,17.066 L35.931,15.456 C35.195,16.56 33.838,17.204 31.929,17.204 C29.169,17.204 27.421,15.732 27.421,13.616 C27.421,11.661 28.686,10.051 32.32,10.051 L32.32,10.051 L35.816,10.051 L35.816,9.614 C35.816,7.751 34.735,6.67 32.55,6.67 C31.101,6.67 29.629,7.176 28.686,7.981 L28.686,7.981 L27.766,6.325 C29.031,5.313 30.848,4.761 32.803,4.761 Z M20.024,4.761 C23.543,4.761 26.05,7.291 26.05,11.04 C26.05,11.224 26.027,11.5 26.004,11.707 L26.004,11.707 L16.114,11.707 C16.39,13.846 18.115,15.272 20.53,15.272 C21.956,15.272 23.152,14.789 24.049,13.8 L24.049,13.8 L25.268,15.226 C24.164,16.514 22.485,17.204 20.461,17.204 C16.528,17.204 13.906,14.605 13.906,10.971 C13.906,7.36 16.505,4.761 20.024,4.761 Z M159.636,4.761 C163.155,4.761 165.662,7.291 165.662,11.04 C165.662,11.224 165.639,11.5 165.616,11.707 L165.616,11.707 L155.726,11.707 C156.002,13.846 157.727,15.272 160.142,15.272 C161.568,15.272 162.764,14.789 163.661,13.8 L163.661,13.8 L164.88,15.226 C163.776,16.514 162.097,17.204 160.073,17.204 C156.14,17.204 153.518,14.605 153.518,10.971 C153.518,7.36 156.117,4.761 159.636,4.761 Z M65.252,0 L65.252,6.601 C66.172,5.428 67.69,4.761 69.553,4.761 C72.52,4.761 74.613,6.463 74.613,10.051 L74.613,10.051 L74.613,17.066 L72.405,17.066 L72.405,10.304 C72.405,7.912 71.209,6.739 69.116,6.739 C66.77,6.739 65.252,8.142 65.252,10.787 L65.252,10.787 L65.252,17.066 L63.044,17.066 L63.044,0 L65.252,0 Z M127.983,4.876 L131.341,9.269 L134.676,4.876 L137.091,4.876 L132.491,10.833 L137.344,17.066 L134.837,17.066 L131.318,12.397 L127.753,17.066 L125.292,17.066 L130.099,10.833 L125.522,4.876 L127.983,4.876 Z M174.876,4.761 L174.876,6.9 C174.692,6.877 174.531,6.877 174.37,6.877 C172.001,6.877 170.529,8.326 170.529,10.994 L170.529,10.994 L170.529,17.066 L168.321,17.066 L168.321,4.876 L170.437,4.876 L170.437,6.923 C171.219,5.497 172.737,4.761 174.876,4.761 L174.876,4.761 Z M48.273,4.761 L48.273,6.9 C48.089,6.877 47.928,6.877 47.767,6.877 C45.398,6.877 43.926,8.326 43.926,10.994 L43.926,10.994 L43.926,17.066 L41.718,17.066 L41.718,4.876 L43.834,4.876 L43.834,6.923 C44.616,5.497 46.134,4.761 48.273,4.761 L48.273,4.761 Z M80.515,0.966 L87.231,12.282 L93.855,0.966 L95.741,0.966 L95.764,17.066 L93.556,17.066 L93.533,5.336 L87.714,15.111 L86.656,15.111 L80.837,5.405 L80.837,17.066 L78.629,17.066 L78.629,0.966 L80.515,0.966 Z M124.013,0.966 L124.013,2.967 L114.951,2.967 L114.951,7.912 L123.024,7.912 L123.024,9.867 L114.951,9.867 L114.951,15.065 L124.335,15.065 L124.335,17.066 L112.651,17.066 L112.651,0.966 L124.013,0.966 Z M35.816,11.638 L32.412,11.638 C30.227,11.638 29.606,12.489 29.606,13.524 C29.606,14.743 30.618,15.502 32.297,15.502 C33.953,15.502 35.264,14.743 35.816,13.34 L35.816,13.34 L35.816,11.638 Z M145.638,6.693 C143.315,6.693 141.544,8.395 141.544,10.971 C141.544,13.57 143.315,15.272 145.638,15.272 C147.984,15.272 149.755,13.57 149.755,10.971 C149.755,8.395 147.984,6.693 145.638,6.693 Z M20.024,6.624 C17.908,6.624 16.344,8.05 16.114,10.12 L16.114,10.12 L23.934,10.12 C23.704,8.073 22.163,6.624 20.024,6.624 Z M159.636,6.624 C157.52,6.624 155.956,8.05 155.726,10.12 L155.726,10.12 L163.546,10.12 C163.316,8.073 161.775,6.624 159.636,6.624 Z" id="Combined-Shape"></path>
                    </g>
                </g>
            </g>
        </g>
    </g>
</svg>