<svg width="182" height="180" viewBox="0 0 182 180" fill="none" xmlns="http://www.w3.org/2000/svg">
<ellipse cx="79.3829" cy="100.441" rx="79.3829" ry="79.5592" fill="#FF6666"/>
<mask id="mask0_0_13518" style="mask-type:luminance" maskUnits="userSpaceOnUse" x="0" y="20" width="159" height="160">
<ellipse cx="79.3829" cy="100.441" rx="79.3829" ry="79.5592" fill="white"/>
</mask>
<g mask="url(#mask0_0_13518)">
<path fill-rule="evenodd" clip-rule="evenodd" d="M2.52315 66.0578C-3.30311 62.4404 -7.18389 55.9751 -7.18389 48.6013C-7.18389 37.2686 1.98278 28.0815 13.2904 28.0815C24.016 28.0815 32.8153 36.347 33.6928 46.869C39.1118 47.2224 44.1584 48.9443 48.4919 51.6933C53.3762 48.595 59.1662 46.8013 65.3743 46.8013C82.8317 46.8013 96.9838 60.9848 96.9838 78.481C103.403 78.481 109.375 80.3986 114.361 83.6933C119.42 72.9529 130.324 65.5211 142.961 65.5211C143.136 65.5211 143.31 65.5226 143.483 65.5254C143.14 63.6562 142.961 61.7297 142.961 59.7612C142.961 42.265 157.113 28.0815 174.571 28.0815C192.028 28.0815 206.18 42.265 206.18 59.7612C206.18 69.5988 201.706 78.3891 194.686 84.1997V203.76H-10.7759V74.161C-10.7759 74.161 -6.73969 75.6185 0.00546455 77.8907C0.0819416 73.6967 0.971623 69.7018 2.52315 66.0578Z" fill="url(#paint0_linear_0_13518)"/>
<path fill-rule="evenodd" clip-rule="evenodd" d="M17.5944 102.281C16.9214 102.768 16.523 103.549 16.523 104.38V130.184H-4.14697V159.027H16.523V228.894H48.5943V159.027H63.3471V228.894H95.4185V159.027H110.171V228.894H142.243V159.027H163.554V130.184H142.243V104.711C142.243 103.672 141.745 102.696 140.903 102.087L128.108 92.8178C126.974 91.9964 125.44 91.9964 124.306 92.8178L111.511 102.087C110.669 102.696 110.171 103.672 110.171 104.711V130.184H95.4185V104.711C95.4185 103.672 94.9204 102.696 94.0791 102.087L81.2835 92.8178C80.1495 91.9964 78.6161 91.9964 77.4821 92.8178L64.6864 102.087C63.8452 102.696 63.3471 103.672 63.3471 104.711V130.184H48.5943V104.38C48.5943 103.549 48.1959 102.768 47.5229 102.281L34.0792 92.5425C33.172 91.8853 31.9453 91.8853 31.0381 92.5425L17.5944 102.281Z" fill="url(#paint1_linear_0_13518)"/>
<path d="M109.654 72.7857C104.852 77.0687 102.01 84.9608 102.01 84.9608C97.9043 103.808 100.649 136.209 69.9729 150.6C41.8586 163.788 11.1771 124.555 22.548 112.181C30.6054 103.412 43.7769 113.005 43.3925 127.624C42.9598 144.079 29.0489 154.763 13.1365 152.639C-18.4277 148.427 -42.4456 100.719 -44.0244 98.7476" stroke="#4B5A69" stroke-width="2.4" stroke-dasharray="5.6 5.6"/>
</g>
<path fill-rule="evenodd" clip-rule="evenodd" d="M112.678 68.8477H128.126L143.24 38.71L112.678 68.8477Z" fill="#C4D5DF"/>
<path fill-rule="evenodd" clip-rule="evenodd" d="M112.702 68.948L113.292 55.0973L141.867 40.1621L112.702 68.948Z" fill="#D5DFE5"/>
<path fill-rule="evenodd" clip-rule="evenodd" d="M161.409 20.6367L140.817 82.5475L127.097 68.7966L141.423 40.6667L113.359 55.0278L99.635 41.2736L161.409 20.6367Z" fill="white"/>
<defs>
<linearGradient id="paint0_linear_0_13518" x1="137.628" y1="-1.97506" x2="60.8936" y2="110.018" gradientUnits="userSpaceOnUse">
<stop stop-color="#BBEAEF"/>
<stop offset="1" stop-color="#86D0DB"/>
</linearGradient>
<linearGradient id="paint1_linear_0_13518" x1="-3.33798" y1="109.005" x2="-30.5292" y2="247.071" gradientUnits="userSpaceOnUse">
<stop stop-color="white"/>
<stop offset="1" stop-color="#CEF1FF"/>
</linearGradient>
</defs>
</svg>
