<svg width="auto" height="10" viewBox="0 0 auto 10" fill="none" xmlns="http://www.w3.org/2000/svg">
<path d="M51.0905 0C49.0263 0.00268732 41.7139 0.0376256 37.0255 0.032251C26.1785 0.0188142 15.3277 0.0268726 4.50768 0.225737C2.81526 0.257984 -0.0576019 0.260675 0.000442505 0.870702C0.0616913 1.50223 1.9863 1.8704 4.93433 1.84621C12.0726 1.7844 19.2483 1.63391 26.3524 1.74141C36.7425 1.89727 47.1188 1.80321 57.4985 1.83277C66.8206 1.85696 76.1427 1.81934 85.4648 1.8489C94.2203 1.87577 102.972 2.01014 111.725 1.99939C119.279 1.99133 126.83 1.83009 134.385 1.76828C136.163 1.75484 138.305 1.86502 140.254 1.85427C141.868 1.84621 144.556 1.83815 146.153 1.7844C146.843 1.76021 147.559 1.73065 148.235 1.75484C151.34 1.85696 152.159 1.6366 151.118 0.943262C150.889 0.790083 151.152 0.591215 150.401 0.486409C150.371 0.481035 150.309 0.472974 150.279 0.4676C148.003 0.0483739 145.669 0.24455 143.318 0.236488C131.778 0.196178 120.235 0.196176 108.695 0.180053C101.614 0.171991 94.5239 0.201554 87.4538 0.123621C85.5193 0.102121 83.5811 0.0134368 81.619 0.0671838H81.6533C79.6027 0.0456851 77.5518 0.00806449 75.5045 0.0107518C67.7488 0.0215011 59.6516 -0.0295605 52.2132 0.0295612C51.9163 0.0268736 51.5206 0 51.0905 0Z" fill="#4B5A69"/>
</svg>
